<?xml version="1.0" standalone="no"?><!DOCTYPE svg PUBLIC "-//W3C//DTD SVG 1.1//EN" "http://www.w3.org/Graphics/SVG/1.1/DTD/svg11.dtd"><svg t="1557903242429" class="icon" style="" viewBox="0 0 1024 1024" version="1.1" xmlns="http://www.w3.org/2000/svg" p-id="9497" xmlns:xlink="http://www.w3.org/1999/xlink" width="128" height="128"><defs><style type="text/css"></style></defs><path d="M467.822 328.239c-76.389 0-138.052 61.663-138.052 138.052s61.663 138.052 138.052 138.052 138.052-61.663 138.052-138.052-61.664-138.052-138.052-138.052zM835.961 98.152H191.717c-50.619 0-92.035 41.416-92.035 92.035V834.43c0 50.619 41.416 92.035 92.035 92.035H835.96c50.619 0 92.035-41.416 92.035-92.035V190.187c0-50.619-41.415-92.035-92.034-92.035zM771.076 834.43L594.83 658.184c-36.814 23.929-80.07 38.194-127.008 38.194-127.008 0-230.087-103.079-230.087-230.087s103.079-230.087 230.087-230.087 230.087 103.079 230.087 230.087c0 46.938-14.265 90.194-38.194 126.548l176.247 176.707-64.886 64.884z" p-id="9498"></path></svg>