<?xml version="1.0" standalone="no"?><!DOCTYPE svg PUBLIC "-//W3C//DTD SVG 1.1//EN" "http://www.w3.org/Graphics/SVG/1.1/DTD/svg11.dtd"><svg t="1557903208166" class="icon" style="" viewBox="0 0 1024 1024" version="1.1" xmlns="http://www.w3.org/2000/svg" p-id="8733" xmlns:xlink="http://www.w3.org/1999/xlink" width="128" height="128"><defs><style type="text/css"></style></defs><path d="M875.764887 674.193009 665.86739 674.193009c-47.423079 0-85.866646-38.443567-85.866646-85.866646l0-19.081591c0-47.423079 38.443567-85.866646 85.866646-85.866646l209.897497 0c47.423079 0 85.866646 38.443567 85.866646 85.866646l0 19.081591C961.631534 635.749442 923.187967 674.193009 875.764887 674.193009zM674.988118 540.621874c-24.319895 0-44.034912 19.932981-44.034912 44.523029 0 24.589025 19.715017 44.523029 44.034912 44.523029 24.319895 0 44.034912-19.935028 44.034912-44.523029C719.02303 560.554856 699.308013 540.621874 674.988118 540.621874zM555.466977 562.54928l0 32.471552c0 61.289901 49.684586 110.974487 110.974487 110.974487l218.863706 0 0 101.767801c0 42.155099-34.17331 76.328409-76.326363 76.328409L141.123135 884.09153c-42.155099 0-76.326363-34.17331-76.326363-76.328409L64.796772 368.886535c0-42.153052 34.171264-76.324316 76.326363-76.324316L808.978808 292.562219c42.153052 0 76.326363 34.171264 76.326363 76.324316l0 82.688257L666.441465 451.574792C605.151563 451.573769 555.466977 501.258355 555.466977 562.54928zM122.041544 190.792371c0-28.103058 22.781866-50.882877 50.884924-50.882877l585.167416 0c28.103058 0 50.884924 22.779819 50.884924 50.882877l0 63.606667L122.041544 254.399037 122.041544 190.792371z" p-id="8734"></path></svg>