<?xml version="1.0" standalone="no"?><!DOCTYPE svg PUBLIC "-//W3C//DTD SVG 1.1//EN" "http://www.w3.org/Graphics/SVG/1.1/DTD/svg11.dtd"><svg t="1558682702008" class="icon" style="" viewBox="0 0 1024 1024" version="1.1" xmlns="http://www.w3.org/2000/svg" p-id="3343" xmlns:xlink="http://www.w3.org/1999/xlink" width="428" height="428"><defs><style type="text/css"></style></defs><path d="M508.033024 951.552c-245.481472 0-444.391424-198.934528-444.391424-444.416 0-245.4272 198.909952-444.416 444.391424-444.416 245.4272 0 444.416 198.9888 444.416 444.416C952.449024 752.617472 753.460224 951.552 508.033024 951.552L508.033024 951.552zM605.466624 667.119616l17.765376-15.568896c0 0 4.477952-40.741888 12.20608-55.525376 17.3056-33.173504 35.533824-88.889344 35.533824-88.889344s17.769472-12.911616 17.769472-35.533824c0-22.59456-17.769472-35.588096-17.769472-35.588096s6.70208-62.92992 6.70208-106.65472c0-91.845632-57.667584-142.216192-161.339392-142.216192-103.563264 0-179.187712 42.8032-179.187712 142.216192 0 43.7248 13.888512 106.65472 13.888512 106.65472s-17.823744 12.992512-17.823744 35.588096c0 22.622208 17.823744 35.533824 17.823744 35.533824s20.723712 64.502784 35.533824 88.889344c8.650752 14.239744 12.230656 55.525376 12.230656 55.525376l17.769472 15.568896c0 0 8.408064 90.164224-17.769472 106.655744-23.653376 14.891008-124.745728 34.556928-149.320704 48.932864 1.488896 1.54624 109.585408 94.747648 261.671936 94.747648 152.092672 0 260.429824-93.553664 260.429824-95.290368-26.257408-14.29504-124.992512-33.6896-148.348928-48.391168C597.028864 757.282816 605.466624 667.119616 605.466624 667.119616L605.466624 667.119616z" fill="#1296db" p-id="3344"></path></svg>