<?xml version="1.0" standalone="no"?><!DOCTYPE svg PUBLIC "-//W3C//DTD SVG 1.1//EN" "http://www.w3.org/Graphics/SVG/1.1/DTD/svg11.dtd"><svg t="1557990694143" class="icon" style="" viewBox="0 0 1024 1024" version="1.1" xmlns="http://www.w3.org/2000/svg" p-id="2111" xmlns:xlink="http://www.w3.org/1999/xlink" width="128" height="128"><defs><style type="text/css"></style></defs><path d="M144.290909 584.145455C48.872727 584.145455 0 535.272727 0 439.854545V195.490909c0-90.763636 48.872727-139.636364 137.309091-141.963636h749.381818c88.436364 0 137.309091 48.872727 137.309091 139.636363v251.345455c0 88.436364-51.2 137.309091-137.309091 137.309091h-151.272727l-591.127273 2.327273z m581.818182-62.836364h172.218182c41.890909 0 60.509091-18.618182 60.509091-60.509091V183.854545c0-44.218182-18.618182-62.836364-65.163637-62.836363H130.327273c-46.545455 0-65.163636 18.618182-65.163637 65.163636v267.636364c0 48.872727 18.618182 67.490909 65.163637 67.490909h595.781818zM749.381818 849.454545c-6.981818 0-16.290909-2.327273-20.945454-6.981818-9.309091-9.309091-6.981818-27.927273-4.654546-34.909091 2.327273-11.636364 4.654545-23.272727 9.309091-32.581818 0-2.327273 2.327273-4.654545 2.327273-9.309091l-6.981818 6.981818c-9.309091 6.981818-18.618182 16.290909-27.927273 23.272728-6.981818 4.654545-18.618182 11.636364-30.254546 11.636363h-2.327272c-6.981818 0-11.636364-6.981818-13.963637-11.636363-2.327273-4.654545-6.981818-13.963636-4.654545-20.945455 4.654545-13.963636 20.945455-23.272727 27.927273-25.6 9.309091-4.654545 20.945455-6.981818 32.581818-9.309091 2.327273 0 4.654545-2.327273 6.981818-2.327272-2.327273 0-4.654545-2.327273-6.981818-2.327273-9.309091-2.327273-20.945455-6.981818-30.254546-11.636364-6.981818-2.327273-20.945455-11.636364-25.6-25.6-2.327273-4.654545 0-11.636364 2.327273-16.290909 2.327273-2.327273 6.981818-13.963636 16.290909-13.963636h4.654546c11.636364 0 25.6 9.309091 27.927272 11.636363 9.309091 6.981818 18.618182 16.290909 27.927273 23.272728l6.981818 6.981818 2.327273-2.327273c0-2.327273-2.327273-6.981818-2.327273-9.309091-4.654545-11.636364-9.309091-23.272727-11.636363-34.909091-2.327273-9.309091 0-27.927273 6.981818-32.581818 4.654545-4.654545 11.636364-4.654545 20.945454-4.654545 6.981818 0 11.636364 2.327273 16.290909 4.654545 9.309091 4.654545 11.636364 23.272727 11.636364 32.581818-2.327273 11.636364-4.654545 23.272727-9.309091 34.909091 0 2.327273-2.327273 6.981818-2.327273 9.309091h2.327273c2.327273-2.327273 4.654545-2.327273 4.654546-4.654545 6.981818-6.981818 13.963636-13.963636 23.272727-20.945455 9.309091-6.981818 20.945455-11.636364 30.254545-11.636364h4.654546c6.981818 2.327273 11.636364 9.309091 13.963636 13.963637 2.327273 4.654545 6.981818 13.963636 4.654546 20.945454-4.654545 11.636364-18.618182 18.618182-27.927273 23.272728-9.309091 4.654545-18.618182 6.981818-30.254546 11.636363-2.327273 0-4.654545 2.327273-6.981818 2.327273 2.327273 0 4.654545 2.327273 6.981818 2.327273 11.636364 2.327273 23.272727 6.981818 32.581819 11.636363 9.309091 4.654545 23.272727 13.963636 25.6 23.272728 2.327273 9.309091-6.981818 27.927273-18.618182 32.581818h-6.981818c-9.309091 0-20.945455-4.654545-27.927273-9.309091-9.309091-6.981818-16.290909-13.963636-25.6-20.945455-2.327273-2.327273-4.654545-4.654545-6.981818-4.654545 0 2.327273 2.327273 4.654545 2.327272 9.309091 2.327273 11.636364 6.981818 20.945455 6.981819 32.581818 0 9.309091 0 27.927273-9.309091 34.909091-9.309091-4.654545-16.290909-4.654545-20.945455-4.654546zM365.381818 970.472727c-4.654545 0-9.309091 0-13.963636-2.327272-32.581818-18.618182-48.872727-62.836364-53.527273-95.418182v-4.654546c2.327273-6.981818 4.654545-16.290909 9.309091-25.6 6.981818-18.618182 11.636364-37.236364 20.945455-53.527272 23.272727-48.872727 20.945455-58.181818-16.29091-93.09091-6.981818-6.981818-11.636364-27.927273-6.981818-37.236363 4.654545-6.981818 16.290909-11.636364 25.6-11.636364 2.327273 0 6.981818 0 9.309091 2.327273 44.218182 13.963636 69.818182 67.490909 58.181818 114.036364-4.654545 18.618182-13.963636 37.236364-20.945454 55.854545l-4.654546 9.309091c-18.618182 41.890909-16.290909 62.836364 16.290909 97.745454 4.654545 6.981818 4.654545 16.290909 4.654546 25.6v16.29091h-16.290909c-2.327273 2.327273-6.981818 2.327273-11.636364 2.327272zM221.090909 923.927273c-4.654545 0-9.309091 0-11.636364-2.327273-30.254545-16.290909-46.545455-55.854545-51.2-90.763636v-4.654546c2.327273-6.981818 4.654545-16.290909 9.309091-23.272727 6.981818-16.290909 11.636364-34.909091 20.945455-53.527273 18.618182-41.890909 18.618182-51.2-16.290909-81.454545-6.981818-4.654545-6.981818-13.963636-6.981818-23.272728 0-2.327273 0-6.981818-2.327273-9.30909l-2.327273-6.981819 6.981818-2.327272c2.327273 0 6.981818-2.327273 9.309091-2.327273 4.654545-2.327273 11.636364-4.654545 18.618182-4.654546 2.327273 0 4.654545 0 6.981818 2.327273 41.890909 16.290909 62.836364 62.836364 48.872728 111.709091-4.654545 16.290909-11.636364 30.254545-16.29091 44.218182-2.327273 9.309091-4.654545 13.963636-6.981818 18.618182-13.963636 34.909091-11.636364 53.527273 13.963637 83.781818 4.654545 6.981818 6.981818 16.290909 6.981818 23.272727v9.309091l2.327273 6.981818h-6.981819c-2.327273 0-6.981818 0-9.309091 2.327273-4.654545 2.327273-9.309091 2.327273-13.963636 2.327273zM507.345455 926.254545c-4.654545 0-6.981818 0-9.309091-2.327272-30.254545-16.290909-48.872727-44.218182-46.545455-74.472728 2.327273-32.581818 6.981818-65.163636 18.618182-93.090909 18.618182-46.545455 18.618182-51.2-16.290909-86.109091-6.981818-6.981818-11.636364-27.927273-4.654546-37.236363 4.654545-6.981818 16.290909-9.309091 25.6-9.309091 4.654545 0 6.981818 0 11.636364 2.327273 34.909091 11.636364 55.854545 51.2 55.854545 100.072727v2.327273s-2.327273 6.981818-4.654545 11.636363c-4.654545 11.636364-9.309091 30.254545-18.618182 46.545455-18.618182 39.563636-23.272727 69.818182 11.636364 97.745454 6.981818 4.654545 6.981818 18.618182 6.981818 20.945455 0 6.981818-2.327273 11.636364-4.654545 13.963636-6.981818 4.654545-16.290909 6.981818-25.6 6.981818z" p-id="2112"></path><path d="M144.290909 456.145455c-4.654545 0-9.309091 0-11.636364-2.327273 0 0-25.6-13.963636-23.272727-25.6 2.327273-11.636364 11.636364-20.945455 20.945455-27.927273 4.654545-2.327273 9.309091-2.327273 13.963636-2.327273h712.145455c9.309091 0 34.909091 0 34.909091 27.927273 0 9.309091-2.327273 16.290909-6.981819 20.945455-6.981818 6.981818-16.290909 6.981818-25.6 6.981818H146.618182c2.327273 2.327273 0 2.327273-2.327273 2.327273zM146.618182 367.709091c-4.654545 0-11.636364 0-16.290909-2.327273-6.981818-2.327273-18.618182-13.963636-18.618182-23.272727s9.309091-20.945455 16.290909-25.6c4.654545-4.654545 11.636364-4.654545 18.618182-4.654546H858.763636c13.963636 0 23.272727 2.327273 27.927273 9.309091 4.654545 4.654545 6.981818 11.636364 6.981818 18.618182 0 25.6-27.927273 25.6-37.236363 25.6H155.927273l-9.309091 2.327273z" p-id="2113"></path></svg>