<?xml version="1.0" standalone="no"?><!DOCTYPE svg PUBLIC "-//W3C//DTD SVG 1.1//EN" "http://www.w3.org/Graphics/SVG/1.1/DTD/svg11.dtd"><svg t="1558683843679" class="icon" style="" viewBox="0 0 1024 1024" version="1.1" xmlns="http://www.w3.org/2000/svg" p-id="5574" xmlns:xlink="http://www.w3.org/1999/xlink" width="428" height="428"><defs><style type="text/css"></style></defs><path d="M512 0C229.7 0 0 229.7 0 512s229.7 512 512 512 512-229.7 512-512S794.3 0 512 0z m0 992C247.3 992 32 776.7 32 512S247.3 32 512 32s480 215.3 480 480-215.3 480-480 480z" fill="#1296db" p-id="5575"></path><path d="M512 80C273.4 80 80 273.4 80 512s193.4 432 432 432 432-193.4 432-432S750.6 80 512 80z m-92.4 299.1c0-50.3 40.8-91.1 91.1-91.1s91.1 40.8 91.1 91.1v140.6c0 50.3-40.8 91.1-91.1 91.1s-91.1-40.8-91.1-91.1V379.1z m262.3 137.1c0 88.3-67.7 161-153.9 169.1V720h81c8.8 0 16 7.2 16 16s-7.2 16-16 16H414.9c-8.8 0-16-7.2-16-16s7.2-16 16-16h81.2v-34.6c-86.3-8.1-154-80.8-154-169.1V442c0-8.8 7.2-16 16-16s16 7.2 16 16v74.3c0 76.1 61.9 137.9 137.9 137.9s137.9-61.9 137.9-137.9V442c0-8.8 7.2-16 16-16s16 7.2 16 16v74.2z" fill="#1296db" p-id="5576"></path></svg>