<?xml version="1.0" standalone="no"?><!DOCTYPE svg PUBLIC "-//W3C//DTD SVG 1.1//EN" "http://www.w3.org/Graphics/SVG/1.1/DTD/svg11.dtd"><svg t="1557990729703" class="icon" style="" viewBox="0 0 1024 1024" version="1.1" xmlns="http://www.w3.org/2000/svg" p-id="2708" xmlns:xlink="http://www.w3.org/1999/xlink" width="128" height="128"><defs><style type="text/css"></style></defs><path d="M495.940744 913.438928 495.940744 736.922702c0-0.203638 0-0.407276 0.01535-0.611937-134.418432-8.278547-240.878093-119.882368-240.878093-256.512165l0-6.288217 0.047072 0c-0.031722-0.548492-0.047072-1.096984-0.047072-1.653663 0-13.305027 10.772344-24.086581 24.085558-24.086581 13.314237 0 24.086581 10.781554 24.086581 24.086581 0 0.556679-0.016373 1.105171-0.047072 1.653663l0.047072 0 0 8.476045c0 115.399263 93.459578 208.78721 208.747301 208.78721 115.304096 0 208.747301-93.476975 208.747301-208.78721l0-8.476045 0.047072 0c-0.030699-0.548492-0.047072-1.096984-0.047072-1.653663 0-13.305027 10.772344-24.086581 24.086581-24.086581 13.313214 0 24.085558 10.781554 24.085558 24.086581 0 0.556679-0.01535 1.105171-0.047072 1.653663l0.047072 0 0 6.288217c0 136.551002-106.427938 248.233618-240.878093 256.512165 0.01535 0.203638 0.01535 0.407276 0.01535 0.611937l0 176.516226 88.23867 0c13.344936 0 24.164353 10.694573 24.164353 24.085558 0 13.305027-10.709923 24.085558-24.164353 24.085558l-208.590735 0c-13.344936 0-24.164353-10.694573-24.164353-24.085558 0-13.305027 10.709923-24.085558 24.164353-24.085558L495.940744 913.438928zM351.423303 223.027539c0-88.716554 71.866794-160.637584 160.575162-160.637584 88.676645 0 160.575162 72.046896 160.575162 160.637584l0 256.794597c0 88.716554-71.866794 160.637584-160.575162 160.637584-88.676645 0-160.575162-72.046896-160.575162-160.637584L351.423303 223.027539z" p-id="2709"></path></svg>