<?xml version="1.0" standalone="no"?><!DOCTYPE svg PUBLIC "-//W3C//DTD SVG 1.1//EN" "http://www.w3.org/Graphics/SVG/1.1/DTD/svg11.dtd"><svg t="1558243451134" class="icon" style="" viewBox="0 0 1024 1024" version="1.1" xmlns="http://www.w3.org/2000/svg" p-id="8117" xmlns:xlink="http://www.w3.org/1999/xlink" width="428" height="428"><defs><style type="text/css"></style></defs><path d="M7.992 8h1008.016v1008H7.992z" fill="#F4F4F4" p-id="8118"></path><path d="M944.472 572.168c0 235.104-190.592 425.688-425.616 425.688-235.136 0-425.64-190.584-425.64-425.688s190.504-425.632 425.64-425.632c235.016-0.008 425.616 190.528 425.616 425.632z" fill="#F5B146" p-id="8119"></path><path d="M518.848 205.8c201.976 0 366.352 164.344 366.352 366.368 0 202.056-164.376 366.424-366.352 366.424-202.024 0-366.368-164.368-366.368-366.424 0.008-202.024 164.352-366.368 366.368-366.368m0-59.272c-235.136 0-425.64 190.528-425.64 425.632s190.504 425.688 425.64 425.688c235.024 0 425.616-190.584 425.616-425.688S753.872 146.528 518.848 146.528z" fill="#DC9232" p-id="8120"></path><path d="M518.848 146.528v851.32c235.024 0 425.616-190.584 425.616-425.688S753.872 146.528 518.848 146.528z" fill="#F39D00" p-id="8121"></path><path d="M518.848 146.528v59.264c201.976 0 366.352 164.344 366.352 366.368 0 202.056-164.376 366.424-366.352 366.424v59.264c235.024 0 425.616-190.584 425.616-425.688S753.872 146.528 518.848 146.528z" fill="#CE8024" p-id="8122"></path><path d="M930.464 291.888c52.84-52.896 52.84-138.56 0-191.464-52.84-52.816-138.552-52.816-191.464 0M107.976 291.888c-52.872-52.896-52.872-138.56 0-191.464 52.84-52.816 138.56-52.816 191.432 0" fill="#0092D2" p-id="8123"></path><path d="M107.976 100.432c-52.872 52.904-52.872 138.56 0 191.464l98.68-100.648-98.68-90.816zM930.464 100.432c52.84 52.904 52.84 138.56 0 191.464l-98.68-100.648 98.68-90.816z" fill="#0085BF" p-id="8124"></path><path d="M514.104 654.264a59.264 59.264 0 0 1-59.264-59.264V362.88a59.28 59.28 0 0 1 59.264-59.272 59.248 59.248 0 0 1 59.256 59.272v232.12a59.256 59.256 0 0 1-59.256 59.264z" fill="#E5226B" p-id="8125"></path><path d="M514.104 303.608a59.248 59.248 0 0 1 59.256 59.272v232.12a59.248 59.248 0 0 1-59.256 59.264V303.608z" fill="#E74D8B" p-id="8126"></path><path d="M472.864 553.792a59.248 59.248 0 0 1 83.824 0l110.952 110.464a59.28 59.28 0 0 1-83.816 83.832l-110.96-110.496a59.232 59.232 0 0 1 0-83.8z" fill="#E5226B" p-id="8127"></path><path d="M667.168 748.088a59.304 59.304 0 0 1-83.808 0L472.864 637.592a59.248 59.248 0 0 1 0-83.808l194.304 194.304z" fill="#C9005B" p-id="8128"></path><path d="M600.96 588.224c0 45.664-37.04 82.736-82.752 82.736-45.688 0-82.736-37.072-82.736-82.736 0-45.728 37.04-82.736 82.736-82.736 45.712 0 82.752 37.016 82.752 82.736z" fill="#E5226B" p-id="8129"></path><path d="M518.848 505.544v165.36c45.416-0.384 82.112-37.248 82.112-82.68 0-45.488-36.696-82.328-82.112-82.68z" fill="#C9005B" p-id="8130"></path></svg>