<?xml version="1.0" standalone="no"?><!DOCTYPE svg PUBLIC "-//W3C//DTD SVG 1.1//EN" "http://www.w3.org/Graphics/SVG/1.1/DTD/svg11.dtd"><svg t="1558243478732" class="icon" style="" viewBox="0 0 1024 1024" version="1.1" xmlns="http://www.w3.org/2000/svg" p-id="9716" xmlns:xlink="http://www.w3.org/1999/xlink" width="428" height="428"><defs><style type="text/css"></style></defs><path d="M47.933 167.194h-0.988V416.03h933.248v-60.718c0.041-1.004 0.297-1.946 0.297-2.96V177.01c0-1.014-0.256-1.956-0.297-2.96v-6.855h-0.69c-4.803-33.5-33.332-59.341-68.163-59.341H116.096c-34.826 0.005-63.36 25.84-68.163 59.34z" fill="#F38181" p-id="9717"></path><path d="M979.507 856.806h0.988v-451.89H47.242v60.712c-0.04 1.004-0.297 1.946-0.297 2.954v378.404c0 1.014 0.256 1.956 0.297 2.954v6.856h0.691c4.803 33.5 33.332 59.341 68.163 59.341H911.34c34.83 0.005 63.365-25.83 68.167-59.33z" fill="#E6E4E2" p-id="9718"></path><path d="M489.544 646.22c-4.834 5.807-9.022 9.99-19.984 19.656-6.123 5.807-12.57 11.608-18.688 17.403-19.655 18.37-23.209 22.892-27.714 38.032h77.67v43.192H365.466v-18.37c0-25.135 6.44-44.15 23.526-62.849 11.924-13.21 25.78-24.811 38.999-37.058 19.016-17.403 22.881-22.236 22.881-37.704v-16.758c0-4.515 0-20.95-17.403-20.628-11.607 0-15.79 6.764-17.402 11.602-0.646 1.935-0.968 4.51-0.968 9.344v31.908H367.4v-29.328c0-17.075 0.968-32.225 14.505-45.117 9.021-8.704 24.817-16.758 52.854-16.758 26.43 0 41.252 8.06 50.278 15.473 2.253 1.93 9.022 7.731 12.57 16.435 2.898 7.091 3.865 14.822 3.865 30.613-0.005 19.333 0.64 34.795-11.93 50.913z m165.335 96.687c-3.226 5.16-8.06 9.026-9.672 10.312-18.688 15.472-42.865 15.15-50.278 15.15-25.452 0-40.93-8.06-49.306-15.15-6.446-5.479-10.312-11.602-13.22-19.334-3.865-11.279-3.865-22.563-3.865-34.16v-103.46c0-4.193 0-8.704 0.327-12.892 0.318-5.15 1.285-19.333 11.602-31.258 8.704-10.64 23.85-19.015 53.177-19.015 23.208 0 53.176 5.478 63.165 29.972 2.908 6.764 3.876 12.242 3.876 26.43v15.79h-47.058v-11.925c0-4.516 0.645-19.666-16.758-19.666-19.338 0-19.016 16.118-19.016 21.596v42.22c6.447-6.446 14.505-14.823 34.806-14.823 27.715 0 41.58 13.855 46.09 24.812 2.253 5.806 3.226 9.672 3.226 20.951v37.386c-0.005 12.897 0.323 25.785-7.096 37.064z m-41.575-65.418c0-4.834 1.613-23.532-17.72-23.532-4.833 0-8.387 0.65-11.924 3.548-6.447 5.479-6.13 13.855-6.13 21.269v27.714c0 5.806-1.284 21.919 18.371 21.919 6.124 0 9.027-1.613 11.607-3.548 5.796-4.833 6.124-12.892 6.124-27.397-0.005-6.436-0.005-13.21-0.328-19.973z" fill="#5B5144" p-id="9719"></path><path d="M455.916 325.955v-86.447l-18.545 86.447h-25.528l-18.555-86.447v86.447h-25.355V205.814h38.8l17.874 88.146 17.863-88.146h39.312v120.14h-25.866z m94.141 0l-4.08-27.403h-22.293l-4.255 27.403h-28.421l24.335-120.141h38.8l24.325 120.14h-28.411z m-14.97-101.085l-8.162 53.438h16.164l-8.003-53.438z m94.473 58.886v42.199h-28.42v-42.2l-28.59-77.936h28.59l14.627 53.094 14.638-53.094h29.102l-29.947 77.937z" fill="#FFFFFF" p-id="9720"></path></svg>