<?xml version="1.0" standalone="no"?><!DOCTYPE svg PUBLIC "-//W3C//DTD SVG 1.1//EN" "http://www.w3.org/Graphics/SVG/1.1/DTD/svg11.dtd"><svg t="1558243386914" class="icon" style="" viewBox="0 0 1024 1024" version="1.1" xmlns="http://www.w3.org/2000/svg" p-id="6012" xmlns:xlink="http://www.w3.org/1999/xlink" width="428" height="428"><defs><style type="text/css"></style></defs><path d="M876.767311 83.682402H147.082122A70.686271 70.686271 0 0 1 76.395851 12.996131V0h871.057731v13.10179A70.593819 70.593819 0 0 1 876.767311 83.682402z m0 0" fill="#2196F3" p-id="6013"></path><path d="M511.924716 483.603983c167.734613 0 303.560027-179.09302 303.560027-399.921581H208.36469c0 220.934221 135.878244 399.921581 303.560026 399.921581z" fill="#90CAF9" p-id="6014"></path><path d="M150.991528 940.159108h721.972037a74.582469 74.582469 0 0 1 74.595677 74.595677v9.245215H76.395851v-9.245215a74.516432 74.516432 0 0 1 74.595677-74.595677z m0 0" fill="#2196F3" p-id="6015"></path><path d="M511.924716 540.184698c-167.734613 0-303.560027 179.09302-303.560026 399.921581h607.225713c0-220.828561-136.036733-399.921581-303.665687-399.921581z m0 0" fill="#90CAF9" p-id="6016"></path><path d="M512.030376 83.682402v399.921581c167.576123-0.10566 303.454367-179.09302 303.454367-399.921581z m0 0" fill="#64B5F6" p-id="6017"></path><path d="M482.657008 431.302482H541.298085v171.696847h-58.641077z" fill="#D2EDF7" p-id="6018"></path><path d="M511.924716 940.053449H815.484743c0-220.828561-135.878244-399.921581-303.560027-399.921581z m0 0" fill="#64B5F6" p-id="6019"></path><path d="M511.924716 431.302482h29.267709v171.696847h-29.267709z" fill="#83C6EF" p-id="6020"></path><path d="M231.92678 238.579374c45.961925 143.961203 153.946035 245.024609 279.997936 245.024609s234.036011-101.116236 279.997937-245.024609z m0 0" fill="#FFD858" p-id="6021"></path><path d="M782.835927 940.053449c-62.233504-72.482485-160.285611-119.395346-270.752721-119.395347s-208.677707 47.018521-270.911211 119.395347z m0 0M498.717267 622.229376c0 16.456482 5.95656 29.796007 13.313109 29.796007s13.313109-13.339524 13.31311-29.796007c0-10.645205-2.53583-20.484755-6.603725-25.807357s-9.245215-5.28298-13.31311 0-6.603725 15.162152-6.603725 25.807357z m0 0M498.717267 710.349482c0 16.456482 5.95656 29.796007 13.313109 29.796006s13.313109-13.339524 13.31311-29.796006c0-10.645205-2.53583-20.484755-6.603725-25.807357s-9.245215-5.28298-13.31311 0-6.603725 15.162152-6.603725 25.807357z m0 0" fill="#FDC223" p-id="6022"></path><path d="M498.611607 812.258164c0 16.456482 5.95656 29.796007 13.313109 29.796007s13.313109-13.339524 13.31311-29.796007c0-10.645205-2.53583-20.484755-6.603725-25.807357s-9.245215-5.28298-13.313109 0-6.603725 15.162152-6.603725 25.807357z m0 0M396.438775 361.144508a949.760925 949.760925 0 0 1-107.402982-6.233916c55.471289 79.139039 134.715988 128.799051 222.941753 128.79905 125.312284 0 232.873755-100.05964 279.15266-242.805757-57.584481 69.999484-212.270134 120.187793-394.638601 120.187793z m0 0" fill="#FDC223" p-id="6023"></path></svg>