<?xml version="1.0" standalone="no"?><!DOCTYPE svg PUBLIC "-//W3C//DTD SVG 1.1//EN" "http://www.w3.org/Graphics/SVG/1.1/DTD/svg11.dtd"><svg t="1558527166429" class="icon" style="" viewBox="0 0 1024 1024" version="1.1" xmlns="http://www.w3.org/2000/svg" p-id="2016" xmlns:xlink="http://www.w3.org/1999/xlink" width="428" height="428"><defs><style type="text/css"></style></defs><path d="M297.13 668.246c-135.317 0-245.01 150.072-245.01 335.259 0 6.141 0.212 12.281 0.422 18.352h489.246c0.353-6.07 0.353-12.211 0.353-18.352 0-185.187-109.622-335.259-245.011-335.259m2.33-34.481c68.328 0 123.669-54.14 123.669-120.847 0-66.776-55.341-120.847-123.669-120.847-68.331 0-123.67 54.07-123.67 120.847 0.001 66.707 55.34 120.847 123.67 120.847M971.88 184.649c0-100.835-125.928-182.505-281.293-182.505-155.222 0-281.151 81.67-281.151 182.505 0 80.718 80.965 149.188 193.058 173.187-3.741 37.236-23.294 104.364-112.022 132.283 0 0 155.788 11.716 279.174-130.412 116.823-22.2 202.234-92.152 202.234-175.058" fill="#040000" p-id="2017"></path></svg>