<?xml version="1.0" standalone="no"?><!DOCTYPE svg PUBLIC "-//W3C//DTD SVG 1.1//EN" "http://www.w3.org/Graphics/SVG/1.1/DTD/svg11.dtd"><svg t="1557990755285" class="icon" style="" viewBox="0 0 1024 1024" version="1.1" xmlns="http://www.w3.org/2000/svg" p-id="3259" xmlns:xlink="http://www.w3.org/1999/xlink" width="128" height="128"><defs><style type="text/css"></style></defs><path d="M697.673956 568.888889 314.948267 568.888889c-23.665778 0-43.383467-18.147556-45.351822-41.733689l-5.848178-70.155378C262.633244 443.733333 273.112178 432.355556 286.424178 432.355556l439.785244 0c13.312 0 23.779556 11.377778 22.675911 24.644267l-5.848178 70.155378C741.0688 550.741333 721.351111 568.888889 697.673956 568.888889zM694.044444 591.644444 318.577778 591.644444l45.511111 341.333333 284.444444 0L694.044444 591.644444zM508.256711 261.563733c42.382222 0 76.731733-34.360889 76.731733-76.731733 0-42.382222-34.360889-76.731733-76.731733-76.731733s-76.731733 34.360889-76.731733 76.731733C431.5136 227.202844 465.874489 261.563733 508.256711 261.563733zM682.666667 409.6l-16.804978-75.036444c-4.266667-19.080533-19.8656-33.553067-39.207822-36.397511l-68.232533-10.0352-33.792 77.528178-4.357689-38.206578c-0.113778-1.206044-1.137778-2.127644-2.343822-2.127644l-19.308089 0c-1.2288 0-2.241422 0.932978-2.3552 2.1504l-3.959467 39.162311-34.212978-78.495289-68.232533 10.0352c-19.342222 2.844444-34.941156 17.316978-39.207822 36.397511L333.846756 409.6 682.666667 409.6zM484.647822 291.077689c0.022756 7.088356 5.870933 16.531911 9.409422 20.0704 3.538489 3.538489 9.477689 3.538489 14.199467 3.538489 4.721778 0 10.660978 0 14.199467-3.538489 3.538489-3.538489 9.386667-12.982044 9.409422-20.0704 0.034133-8.260267-14.415644-9.443556-23.608889-9.443556C499.052089 281.634133 484.613689 282.806044 484.647822 291.077689z" p-id="3260"></path></svg>