<?xml version="1.0" standalone="no"?><!DOCTYPE svg PUBLIC "-//W3C//DTD SVG 1.1//EN" "http://www.w3.org/Graphics/SVG/1.1/DTD/svg11.dtd"><svg t="1557990968176" class="icon" style="" viewBox="0 0 1024 1024" version="1.1" xmlns="http://www.w3.org/2000/svg" p-id="5365" xmlns:xlink="http://www.w3.org/1999/xlink" width="128" height="128"><defs><style type="text/css"></style></defs><path d="M442 64H134c-38.66 0-70 31.34-70 70v756c0 38.66 31.34 70 70 70h308c38.66 0 70-31.34 70-70V134c0-38.66-31.34-70-70-70z m20 826c0 11.028-8.972 20-20 20H134c-11.028 0-20-8.972-20-20V134c0-11.028 8.972-20 20-20h308c11.028 0 20 8.972 20 20v756zM890 384H622c-38.66 0-70 31.34-70 70v436c0 38.66 31.34 70 70 70h268c38.66 0 70-31.34 70-70V454c0-38.66-31.34-70-70-70z m20 506c0 11.028-8.972 20-20 20H622c-11.028 0-20-8.972-20-20V454c0-11.028 8.972-20 20-20h268c11.028 0 20 8.972 20 20v436z" p-id="5366"></path><path d="M288 244c-55.228 0-100 44.772-100 100s44.772 100 100 100 100-44.772 100-100-44.772-100-100-100z m0 130c-16.542 0-30-13.458-30-30s13.458-30 30-30 30 13.458 30 30-13.458 30-30 30z" p-id="5367"></path><path d="M288 574m-30 0a30 30 0 1 0 60 0 30 30 0 1 0-60 0Z" p-id="5368"></path><path d="M876 672c0-66.274-53.726-120-120-120s-120 53.726-120 120 53.726 120 120 120 120-53.726 120-120z m-120 70c-38.598 0-70-31.402-70-70s31.402-70 70-70 70 31.402 70 70-31.402 70-70 70z" p-id="5369"></path><path d="M756 672m-30 0a30 30 0 1 0 60 0 30 30 0 1 0-60 0Z" p-id="5370"></path><path d="M657 489m-25 0a25 25 0 1 0 50 0 25 25 0 1 0-50 0Z" p-id="5371"></path><path d="M855 489m-25 0a25 25 0 1 0 50 0 25 25 0 1 0-50 0Z" p-id="5372"></path><path d="M657 855m-25 0a25 25 0 1 0 50 0 25 25 0 1 0-50 0Z" p-id="5373"></path><path d="M855 855m-25 0a25 25 0 1 0 50 0 25 25 0 1 0-50 0Z" p-id="5374"></path><path d="M288 684m-30 0a30 30 0 1 0 60 0 30 30 0 1 0-60 0Z" p-id="5375"></path><path d="M288 794m-30 0a30 30 0 1 0 60 0 30 30 0 1 0-60 0Z" p-id="5376"></path></svg>