<?xml version="1.0" standalone="no"?><!DOCTYPE svg PUBLIC "-//W3C//DTD SVG 1.1//EN" "http://www.w3.org/Graphics/SVG/1.1/DTD/svg11.dtd"><svg t="1568272032371" class="icon" viewBox="0 0 1024 1024" version="1.1" xmlns="http://www.w3.org/2000/svg" p-id="577" xmlns:xlink="http://www.w3.org/1999/xlink" width="200" height="200"><defs><style type="text/css"></style></defs><path d="M538 583.4l13 0c7.2 0 13 5.8 13 13l0 208c0 7.2-5.8 13-13 13l-13 0c-7.2 0-13-5.8-13-13l0-208C525 589.2 530.8 583.4 538 583.4zM473 583.4l13 0c7.2 0 13 5.8 13 13l0 208c0 7.2-5.8 13-13 13l-13 0c-7.2 0-13-5.8-13-13l0-208C460 589.2 465.8 583.4 473 583.4zM174 206.4c-14.4 0-26 11.6-26 26 0 14.3 11.7 26 26 26 14.4 0 26-11.7 26-26C200 218.1 188.4 206.4 174 206.4zM174 297.5c-35.9 0-65-29.1-65-65 0-35.9 29.1-65 65-65 35.9 0 65 29.1 65 65C239 268.3 209.9 297.5 174 297.5zM356 687.4l-143-78 0-221c0 0-3.7-26-39-26-31.9 0-39 26-39 26l0 195c0 0-2.2 20.2 13 26l195 91 0 156 13 0L356 687.4zM395 700.4l0 156c0 0-2.9 41.7-52 39-37.6-2.1-39-39-39-39l0-130-169-78c0 0-38.5-14.5-39-52 0-1.8 0-221 0-221s17.9-51.3 78-52c62.3-0.7 78 52 78 52l0 208 117 65C369 648.4 394.1 657.3 395 700.4zM512 167.3c-14.4 0-26 11.6-26 25.9 0 14.3 11.7 25.9 26 25.9s26-11.6 26-25.9C538 178.9 526.4 167.3 512 167.3zM512 258c-35.9 0-65-29-65-64.8 0-35.7 29.1-64.7 65-64.7 35.9 0 65 29 65 64.7C577 229 547.9 258 512 258zM564 348.6c0 0-2.3-26.7-52-25.9-53.6 0.8-52 25.9-52 25.9l0 156.8 104 0L564 348.6zM707 544.5 317 544.5c0 0-13-2.2-13-17.9 0-19.6 13-21.2 13-21.2l104 0 0-169.8c0 0-0.5-51.3 91-51.8 83.9-0.5 91 51.8 91 51.8l0 169.8 104 0c0 0 13 5 13 19.1C720 537.7 707 544.5 707 544.5zM850 206.3c-14.4 0-26 11.6-26 25.9 0 14.3 11.6 25.9 26 25.9 14.3 0 26-11.6 26-25.9C876 217.9 864.3 206.3 850 206.3zM850 296.9c-35.9 0-65-29-65-64.7s29.1-64.7 65-64.7c35.9 0 65 29 65 64.7S885.9 296.9 850 296.9zM889 581.9 889 387.6c0 0-7.1-25.9-38.9-25.9-35.4 0-39 25.9-39 25.9l0 220.2-143 77.7 0 168.4 13 0L681.1 698.5l195-90.6C891.1 602 889 581.9 889 581.9zM928 594.8c-0.5 37.4-39 51.8-39 51.8l-169 77.7 0 129.5c0 0-1.4 36.8-39 38.8-49.1 2.7-52-38.8-52-38.8L629 698.5c0.9-43 26-51.8 26-51.8l117-64.7L772 374.7c0 0 15.7-52.5 78-51.8 60.1 0.7 78 51.8 78 51.8S928 593.1 928 594.8z" p-id="578"></path></svg>