<?xml version="1.0" standalone="no"?><!DOCTYPE svg PUBLIC "-//W3C//DTD SVG 1.1//EN" "http://www.w3.org/Graphics/SVG/1.1/DTD/svg11.dtd"><svg t="1557990786998" class="icon" style="" viewBox="0 0 1024 1024" version="1.1" xmlns="http://www.w3.org/2000/svg" p-id="4432" xmlns:xlink="http://www.w3.org/1999/xlink" width="128" height="128"><defs><style type="text/css"></style></defs><path d="M586.623581 752.761436 435.20701 752.761436c-27.447119 0-34.398438-23.617907-42.459021-51.751664-6.841825-23.916712-18.292622-63.625086-34.929534-80.260975-42.442648-42.442648-66.780963-100.397594-66.780963-159.321612 0-58.283428 23.478737-115.090225 64.406892-156.017356 41.677215-42.005696 96.774067-65.144696 155.072845-65.144696 58.642608 0 113.817232 22.89136 155.337881 64.428382 41.537022 41.537022 64.406892 96.519264 64.406892 154.833391 0 29.836539-6.232958 59.084677-18.511609 86.922698-7.560186 17.277502-23.979134 50.100048-48.520063 74.640977-11.434423 11.434423-22.979364 48.800449-29.883611 71.545476C622.630656 727.940121 614.883205 752.761436 586.623581 752.761436zM455.983195 691.363064l111.364367 0c1.608637-5.116531 3.311419-11.226692 4.764514-16.022928 10.29446-33.913391 23.119557-76.4246 45.879933-99.184977 12.496615-12.496615 25.321712-32.752961 35.17922-55.279001 8.716522-19.761066 13.106506-40.378639 13.106506-61.264319 0-41.224914-16.21531-80.175017-45.660946-109.620653-29.446659-29.445636-68.546166-45.680389-110.098537-45.680389-41.11542 0-80.074733 16.455787-109.739357 46.354747-29.118178 29.102828-45.75509 69.51012-45.75509 110.937648 0 42.083467 17.511839 83.727936 48.035016 114.252137 28.352745 28.368094 42.11519 77.038584 51.206242 108.85829C454.873931 686.823678 455.43675 688.293145 455.983195 691.363064z" p-id="4433"></path><path d="M574.634526 849.975525 446.664969 849.975525c-17.667382 0-31.992645-14.055111-31.992645-31.722492s14.32424-31.722492 31.992645-31.722492l127.969557 0c17.667382 0 31.992645 14.055111 31.992645 31.722492S592.301907 849.975525 574.634526 849.975525z" p-id="4434"></path><path d="M510.150886 170.843016c-17.667382 0-31.722492-14.32424-31.722492-31.992645L478.428394 42.87346c0-17.667382 14.055111-31.992645 31.722492-31.992645 17.667382 0 31.722492 14.32424 31.722492 31.992645l0 95.976912C541.873378 156.518776 527.819291 170.843016 510.150886 170.843016z" p-id="4435"></path><path d="M292.576545 278.06811c-8.185426 0-16.370853-3.124154-22.61916-9.372461l-69.795623-69.795623c-12.496615-12.496615-12.496615-32.742728 0-45.239344 12.496615-12.496615 32.742728-12.496615 45.239344 0l69.795623 69.795623c12.496615 12.496615 12.496615 32.742728 0 45.239344C308.947398 274.943956 300.761971 278.06811 292.576545 278.06811z" p-id="4436"></path><path d="M173.059498 490.795049 77.082586 490.795049c-17.667382 0-31.992645-14.055111-31.992645-31.722492s14.32424-31.722492 31.992645-31.722492l95.976912 0c17.667382 0 31.992645 14.055111 31.992645 31.722492S190.726879 490.795049 173.059498 490.795049z" p-id="4437"></path><path d="M728.82835 278.06811c-8.185426 0-16.370853-3.124154-22.61916-9.372461-12.496615-12.496615-12.496615-32.742728 0-45.239344l69.795623-69.795623c12.496615-12.496615 32.742728-12.496615 45.239344 0 12.496615 12.496615 12.496615 32.742728 0 45.239344l-69.795623 69.795623C745.199203 274.943956 737.013777 278.06811 728.82835 278.06811z" p-id="4438"></path><path d="M946.263521 490.795049l-95.976912 0c-17.667382 0-31.992645-14.055111-31.992645-31.722492s14.32424-31.722492 31.992645-31.722492l95.976912 0c17.667382 0 31.992645 14.055111 31.992645 31.722492S963.931926 490.795049 946.263521 490.795049z" p-id="4439"></path><path d="M445.682595 882.721323l0 60.740386c0 37.278022 27.190269 67.777663 64.46829 67.777663s64.46829-30.499641 64.46829-67.777663l0-60.740386L445.682595 882.721323z" p-id="4440"></path></svg>